<?xml version="1.0" encoding="utf-8" standalone="yes"?> <svg width="1026" height="1026" viewBox="-1 -1 27 27" xmlns="http://www.w3.org/2000/svg" xmlns:xlink="http://www.w3.org/1999/xlink" shape-rendering="crispEdges" id="qr code"><rect id="qr background" fill-opacity="1" fill="rgb(255, 255, 255)" x="-1" y="-1" width="27" height="27"></rect><path fill-opacity="1" fill="rgb(0, 0, 0)" id="qr dark pixels" fill-rule="evenodd" d="M 8 0 L 9 0 L 9 1 L 8 1 z M 10 0 L 11 0 L 11 1 L 12 1 L 12 0 L 13 0 L 13 2 L 11 2 L 11 4 L 9 4 L 9 5 L 8 5 L 8 2 L 9 2 L 9 1 L 10 1 z M 16 0 L 17 0 L 17 2 L 16 2 z M 14 1 L 15 1 L 15 2 L 16 2 L 16 3 L 17 3 L 17 5 L 15 5 L 15 4 L 13 4 L 13 5 L 12 5 L 12 6 L 11 6 L 11 8 L 12 8 L 12 9 L 11 9 L 11 10 L 12 10 L 12 9 L 13 9 L 13 11 L 14 11 L 14 12 L 17 12 L 17 11 L 19 11 L 19 12 L 21 12 L 21 16 L 24 16 L 24 15 L 25 15 L 25 22 L 24 22 L 24 23 L 23 23 L 23 24 L 25 24 L 25 25 L 19 25 L 19 24 L 20 24 L 20 21 L 19 21 L 19 24 L 17 24 L 17 23 L 15 23 L 15 24 L 14 24 L 14 25 L 8 25 L 8 21 L 9 21 L 9 18 L 10 18 L 10 17 L 13 17 L 13 16 L 14 16 L 14 17 L 16 17 L 16 16 L 14 16 L 14 15 L 16 15 L 16 14 L 14 14 L 14 13 L 13 13 L 13 14 L 14 14 L 14 15 L 12 15 L 12 13 L 9 13 L 9 10 L 10 10 L 10 5 L 11 5 L 11 4 L 12 4 L 12 3 L 13 3 L 13 2 L 14 2 zM 11 11 L 12 11 L 12 12 L 11 12 z M 17 13 L 18 13 L 18 14 L 17 14 z M 18 14 L 20 14 L 20 15 L 19 15 L 19 16 L 18 16 z M 17 17 L 20 17 L 20 20 L 17 20 z M 21 17 L 22 17 L 22 19 L 24 19 L 24 21 L 22 21 L 22 20 L 21 20 z M 23 17 L 24 17 L 24 18 L 23 18 z M 11 18 L 13 18 L 13 19 L 14 19 L 14 22 L 13 22 L 13 23 L 12 23 L 12 21 L 10 21 L 10 20 L 11 20 z M 14 18 L 16 18 L 16 19 L 14 19 z M 15 20 L 16 20 L 16 22 L 15 22 z M 17 21 L 18 21 L 18 22 L 17 22 z M 9 22 L 10 22 L 10 23 L 11 23 L 11 24 L 9 24 z M 21 22 L 22 22 L 22 24 L 21 24 z M 8 6 L 9 6 L 9 7 L 8 7 z M 12 6 L 13 6 L 13 8 L 12 8 z M 14 6 L 15 6 L 15 7 L 14 7 z M 16 6 L 17 6 L 17 7 L 16 7 z M 0 8 L 4 8 L 4 10 L 5 10 L 5 11 L 6 11 L 6 12 L 7 12 L 7 13 L 6 13 L 6 14 L 2 14 L 2 15 L 1 15 L 1 13 L 0 13 zM 1 9 L 3 9 L 3 10 L 2 10 L 2 11 L 1 11 z M 3 11 L 4 11 L 4 12 L 3 12 z M 6 8 L 7 8 L 7 9 L 6 9 z M 8 8 L 9 8 L 9 9 L 8 9 z M 14 8 L 15 8 L 15 10 L 14 10 z M 16 8 L 18 8 L 18 10 L 16 10 z M 20 8 L 23 8 L 23 9 L 20 9 z M 24 8 L 25 8 L 25 9 L 24 9 z M 19 9 L 20 9 L 20 11 L 19 11 z M 23 9 L 24 9 L 24 10 L 23 10 z M 6 10 L 7 10 L 7 11 L 6 11 z M 21 11 L 23 11 L 23 12 L 25 12 L 25 14 L 24 14 L 24 13 L 22 13 L 22 12 L 21 12 z M 8 13 L 9 13 L 9 14 L 11 14 L 11 15 L 10 15 L 10 17 L 9 17 L 9 18 L 8 18 L 8 17 L 5 17 L 5 16 L 3 16 L 3 15 L 6 15 L 6 16 L 8 16 L 8 15 L 6 15 L 6 14 L 8 14 z M 22 14 L 24 14 L 24 15 L 22 15 z M 0 15 L 1 15 L 1 16 L 0 16 z M 11 15 L 12 15 L 12 16 L 11 16 z M 2 16 L 3 16 L 3 17 L 2 17 z M 18 18 L 19 18 L 19 19 L 18 19 z"></path><path id="qr squares" d="M0,0h7h0v0v7v0h0h-7h0v0v-7v0h0zM1,1h5h0v0v5v0h0h-5h0v0v-5v0h0zM2,2h3h0v0v3v0h0h-3h0v0v-3v0h0z M18,0h7h0v0v7v0h0h-7h0v0v-7v0h0zM19,1h5h0v0v5v0h0h-5h0v0v-5v0h0zM20,2h3h0v0v3v0h0h-3h0v0v-3v0h0z M0,18h7h0v0v7v0h0h-7h0v0v-7v0h0zM1,19h5h0v0v5v0h0h-5h0v0v-5v0h0zM2,20h3h0v0v3v0h0h-3h0v0v-3v0h0z" fill-rule="evenodd" fill-opacity="1" fill="rgb(0, 0, 0)"></path></svg>